<svg width="23" height="24" viewBox="0 0 23 24" fill="none" xmlns="http://www.w3.org/2000/svg">
<g clip-path="url(#clip0_50_16)">
<path d="M15.7024 17.039C15.725 16.863 15.742 16.687 15.742 16.5C15.742 16.313 15.725 16.137 15.7024 15.961L16.8954 15.0535C17.0029 14.971 17.0311 14.8225 16.9633 14.7015L15.8324 12.7985C15.7646 12.6775 15.6119 12.6335 15.4875 12.6775L14.0796 13.2275C13.7856 13.0075 13.4689 12.826 13.124 12.6885L12.9092 11.231C12.8922 11.099 12.7735 11 12.6321 11H10.3704C10.229 11 10.1103 11.099 10.0933 11.231L9.87847 12.6885C9.53356 12.826 9.21691 13.013 8.92289 13.2275L7.51497 12.6775C7.38492 12.628 7.23791 12.6775 7.17006 12.7985L6.0392 14.7015C5.9657 14.8225 5.99962 14.971 6.10705 15.0535L7.30011 15.961C7.27749 16.137 7.26053 16.3185 7.26053 16.5C7.26053 16.6815 7.27749 16.863 7.30011 17.039L6.10705 17.9465C5.99962 18.029 5.97135 18.1775 6.0392 18.2985L7.17006 20.2015C7.23791 20.3225 7.39058 20.3665 7.51497 20.3225L8.92289 19.7725C9.21691 19.9925 9.53356 20.174 9.87847 20.3115L10.0933 21.769C10.1103 21.901 10.229 22 10.3704 22H12.6321C12.7735 22 12.8922 21.901 12.9092 21.769L13.124 20.3115C13.4689 20.174 13.7856 19.987 14.0796 19.7725L15.4875 20.3225C15.6176 20.372 15.7646 20.3225 15.8324 20.2015L16.9633 18.2985C17.0311 18.1775 17.0029 18.029 16.8954 17.9465L15.7024 17.039ZM11.5012 18.425C10.41 18.425 9.52225 17.5615 9.52225 16.5C9.52225 15.4385 10.41 14.575 11.5012 14.575C12.5925 14.575 13.4803 15.4385 13.4803 16.5C13.4803 17.5615 12.5925 18.425 11.5012 18.425Z" fill="black"/>
<path d="M22.5428 19.68L15.068 8.369V2.962H16.8045V0H6.20118V2.965H7.95197V8.372L0.462843 19.68C0.182814 20.1012 0.0237431 20.589 0.00245771 21.0919C-0.0188277 21.5947 0.0984641 22.0938 0.341925 22.5365C0.585385 22.9791 0.945962 23.3488 1.38551 23.6064C1.82506 23.8641 2.32723 24 2.83891 24H20.1576C20.6702 23.9992 21.1731 23.8623 21.6132 23.6037C22.0532 23.3452 22.4141 22.9745 22.6578 22.531C22.9015 22.0874 23.0188 21.5873 22.9975 21.0836C22.9762 20.5799 22.817 20.0911 22.5367 19.669L22.5439 19.68H22.5428ZM21.6227 21.982C21.4803 22.2402 21.2696 22.4557 21.013 22.606C20.7564 22.7563 20.4634 22.8358 20.1647 22.836H2.83891C2.53895 22.8364 2.24447 22.757 1.98667 22.6062C1.72888 22.4554 1.51738 22.2388 1.37459 21.9793C1.2318 21.7199 1.16305 21.4272 1.17563 21.1325C1.1882 20.8377 1.28163 20.5518 1.44601 20.305L1.44194 20.311L9.11712 8.711V2.96H13.8814V8.714L21.5485 20.314C21.7213 20.565 21.825 20.875 21.825 21.209C21.825 21.494 21.7498 21.762 21.6176 21.994L21.6217 21.986L21.6227 21.982Z" fill="black"/>
</g>
<defs>
<clipPath id="clip0_50_16">
<rect width="23" height="24" fill="white"/>
</clipPath>
</defs>
</svg>
